<svg xmlns="http://www.w3.org/2000/svg" version="1.1" xmlns:xlink="http://www.w3.org/1999/xlink" xmlns:svgjs="http://svgjs.com/svgjs" width="40" height="40" x="0" y="0" viewBox="0 0 24 24" style="enable-background:new 0 0 512 512" xml:space="preserve"><g><path d="M20 0H5C3.35 0 2 1.35 2 3v18c0 1.65 1.35 3 3 3h17V2c0-1.1-.9-2-2-2Zm0 18H8V2h12v16ZM5 2h1v16H5a3 3 0 0 0-1 .17V3c0-.55.45-1 1-1Zm0 20c-.55 0-1-.45-1-1s.45-1 1-1h15v2H5Zm6.49-6.98.71-2h3.59l.71 2h2.12L15.4 6c-.22-.6-.77-.99-1.41-.99s-1.19.39-1.41 1l-3.22 9.02h2.12ZM14 7.99l1.08 3.03h-2.16L14 7.99Z" fill="#00c3ff" data-original="#000000"></path></g></svg>