<svg xmlns="http://www.w3.org/2000/svg" version="1.1" xmlns:xlink="http://www.w3.org/1999/xlink" xmlns:svgjs="http://svgjs.com/svgjs" width="40" height="40" x="0" y="0" viewBox="0 0 24 24" style="enable-background:new 0 0 512 512" xml:space="preserve"><g><path d="M12.5 11h-6A1.5 1.5 0 0 0 5 12.5v5A1.5 1.5 0 0 0 6.5 19h6a1.5 1.5 0 0 0 1.5-1.5v-5a1.5 1.5 0 0 0-1.5-1.5ZM11 16H8v-2h3v2Zm11.602-7.231a2.514 2.514 0 0 0-2.648.238l-1.193.894a5.507 5.507 0 0 0-5.066-3.892l-3.536-3.984A3.477 3.477 0 0 0 7.684 1H1.5a1.5 1.5 0 1 0 0 3h6.185c.132 0 .26.053.292.081L9.679 6H5.5A5.506 5.506 0 0 0 0 11.5v7C0 21.533 2.468 24 5.5 24h8a5.508 5.508 0 0 0 5.261-3.902l1.193.895a2.523 2.523 0 0 0 2.649.238A2.513 2.513 0 0 0 24 18.97v-7.939c0-.964-.535-1.831-1.397-2.261ZM16 18.5c0 1.378-1.121 2.5-2.5 2.5h-8A2.503 2.503 0 0 1 3 18.5v-7C3 10.122 4.121 9 5.5 9h8c1.379 0 2.5 1.122 2.5 2.5v7Z" fill="#00c3ff" data-original="#000000"></path></g></svg>